<?xml version="1.0" encoding="utf-8"?>
<!-- Generator: Adobe Illustrator 16.0.3, SVG Export Plug-In . SVG Version: 6.00 Build 0)  -->
<!DOCTYPE svg PUBLIC "-//W3C//DTD SVG 1.1//EN" "http://www.w3.org/Graphics/SVG/1.1/DTD/svg11.dtd">
<svg version="1.1" id="Layer_1" xmlns="http://www.w3.org/2000/svg" xmlns:xlink="http://www.w3.org/1999/xlink" x="0px" y="0px"
	 width="1533.154px" height="342.034px" viewBox="0 0 1533.154 342.034" enable-background="new 0 0 1533.154 342.034"
	 xml:space="preserve">
<g>
	<path fill="#CCC" d="M364.295,217.338c0-9.711-7.17-17.749-16.507-19.108c0.2-1.293,0.302-2.616,0.302-3.964
		c0-14.385-11.665-26.05-26.053-26.05c-11.534,0-21.31,7.5-24.738,17.885c-2.326-0.898-4.854-1.399-7.5-1.399
		c-11.487,0-20.8,9.314-20.8,20.799c0,0.364,0.011,0.723,0.027,1.079c-0.067,0-0.132-0.004-0.199-0.004
		c-8.305,0-15.04,6.733-15.04,15.036c0,8.308,6.735,15.041,15.04,15.041c0.539,0,77.747-0.072,77.747-0.072
		C356.496,235.772,364.295,227.466,364.295,217.338z"/>
	<path fill="#CCC" d="M189.287,289.359c0-14.6-10.777-26.678-24.807-28.719c0.297-1.94,0.451-3.933,0.451-5.96
		c0-21.622-17.533-39.151-39.158-39.151c-17.334,0-32.031,11.271-37.182,26.883c-3.499-1.354-7.296-2.105-11.274-2.105
		c-17.265,0-31.262,13.996-31.262,31.262c0,0.545,0.015,1.082,0.041,1.618c-0.1,0-0.198-0.006-0.297-0.006
		c-12.483,0-22.605,10.117-22.605,22.603c0,12.483,10.122,22.606,22.605,22.606c0.808,0,116.853-0.108,116.853-0.108
		C177.563,317.063,189.287,304.585,189.287,289.359z"/>
	<path fill="#FFF" d="M192.28,222.8c0,0-32.835-36.467-48.858-55.08c-11.636-13.521-22.809-27.889-29.818-44.428
		c-6.836-16.132-9.266-34.122-5.229-51.296c3.924-16.699,13.873-31.6,28.394-40.879c19.611-12.531,45.21-14.973,67.916-14.199
		c6.714,0.229,13.417,0.882,20.064,1.85c8.899,1.295,17.868,3.09,26.207,6.552c3.852,1.598,7.7,3.55,11.218,5.797
		c14.521,9.279,24.468,24.18,28.393,40.879c4.036,17.175,1.605,35.164-5.23,51.296c-7.008,16.54-18.18,30.908-29.816,44.428
		c-16.024,18.613-33.249,36.096-48.857,55.08H192.28z"/>
	<rect x="191.869" y="233.564" fill="#FFF" width="15.202" height="11.515"/>
</g>
<g>
	<path fill="#CCC" d="M455.036,176.694V46.336h16.015v130.358H455.036z"/>
	<path fill="#CCC" d="M560.488,146.293l16.49,2.036c-5.475,20.313-19.317,30.469-41.53,30.469c-8.46,0-15.97-1.641-22.529-4.92
		s-11.943-8.55-16.15-15.811c-4.207-7.261-6.311-16.524-6.311-27.789c0-9.636,1.629-18.186,4.886-25.651
		c3.257-7.464,8.199-13.413,14.827-17.847c6.627-4.433,14.76-6.65,24.396-6.65c10.134,0,18.469,2.477,25.006,7.431
		s11.151,11.017,13.844,18.187c2.691,7.17,4.037,16.434,4.037,27.788h-70.438c0.587,9.953,3.415,17.803,8.482,23.547
		c5.066,5.746,11.762,8.618,20.086,8.618C547.527,165.701,555.829,159.232,560.488,146.293z M507.897,120.438h52.727
		c-0.724-9.048-3.483-15.833-8.278-20.358c-4.796-4.523-10.654-6.786-17.576-6.786c-7.556,0-13.798,2.5-18.729,7.499
		C511.109,105.792,508.394,112.341,507.897,120.438z"/>
	<path fill="#CCC" d="M597.201,64.726v-18.39h16.015v18.39H597.201z M597.201,176.694v-94.46h16.015v94.46H597.201z"/>
	<path fill="#CCC" d="M699.193,142.085l15.744,2.036c-1.675,10.768-6.029,19.238-13.063,25.413
		c-7.035,6.175-15.777,9.263-26.228,9.263c-13.527,0-24.067-4.343-31.622-13.029c-7.556-8.686-11.333-20.673-11.333-35.965
		c0-17.191,4.105-29.767,12.316-37.73c8.211-7.962,18.446-11.943,30.707-11.943c21.308,0,33.884,9.953,37.729,29.858l-15.607,2.443
		c-2.986-12.758-10.157-19.137-21.512-19.137c-18.142,0-27.212,12.035-27.212,36.102c0,24.203,8.776,36.305,26.33,36.305
		C689.059,165.701,696.976,157.829,699.193,142.085z"/>
	<path fill="#CCC" d="M728.644,176.694V46.336h16.016v46.755c7.464-8.641,16.873-12.961,28.229-12.961
		c10.087,0,18.05,2.534,23.886,7.6c5.836,5.067,8.754,14.771,8.754,29.112v59.852h-16.015v-59.852
		c0-15.291-6.628-22.937-19.883-22.937c-16.648,0-24.972,10.383-24.972,31.147v51.641H728.644z"/>
	<path fill="#CCC" d="M864.906,162.375l2.307,14.115c-4.524,0.949-8.55,1.425-12.079,1.425c-5.021,0-9.184-0.747-12.485-2.239
		c-3.303-1.493-5.758-3.767-7.363-6.82c-1.606-3.054-2.409-9.67-2.409-19.849V94.72h-11.739V82.233h11.739V58.89l15.947-9.636
		v32.979h16.083V94.72h-16.083v55.237c0,4.841,0.52,8.223,1.561,10.145c1.04,1.924,3.529,2.884,7.465,2.884
		C859.657,162.986,862.01,162.783,864.906,162.375z"/>
	<path fill="#CCC" d="M945.25,146.293l16.49,2.036c-5.475,20.313-19.317,30.469-41.53,30.469c-8.46,0-15.97-1.641-22.529-4.92
		s-11.943-8.55-16.15-15.811c-4.207-7.261-6.311-16.524-6.311-27.789c0-9.636,1.629-18.186,4.886-25.651
		c3.257-7.464,8.199-13.413,14.827-17.847c6.627-4.433,14.76-6.65,24.396-6.65c10.134,0,18.469,2.477,25.006,7.431
		s11.151,11.017,13.844,18.187c2.691,7.17,4.037,16.434,4.037,27.788h-70.438c0.587,9.953,3.415,17.803,8.482,23.547
		c5.066,5.746,11.762,8.618,20.086,8.618C932.29,165.701,940.591,159.232,945.25,146.293z M892.66,120.438h52.727
		c-0.724-9.048-3.483-15.833-8.278-20.358c-4.796-4.523-10.654-6.786-17.576-6.786c-7.556,0-13.798,2.5-18.729,7.499
		C895.872,105.792,893.157,112.341,892.66,120.438z"/>
	<path fill="#CCC" d="M981.692,176.694v-94.46h14.454v14.318c6.016-10.947,12.825-16.422,20.426-16.422
		c5.383,0,10.857,1.72,16.422,5.157l-5.497,14.861c-3.891-2.307-7.804-3.461-11.739-3.461c-12.034,0-18.051,10.179-18.051,30.537
		v49.47H981.692z"/>
	<path fill="#FFF" d="M1122.839,176.694h-12.079c-1.765-4.434-2.918-9.229-3.461-14.386
		c-10.225,10.993-23.096,16.489-38.612,16.489c-5.655,0-10.711-0.983-15.166-2.952c-4.457-1.968-8.02-4.919-10.688-8.855
		c-2.67-3.936-4.003-8.73-4.003-14.386c0-3.98,0.621-7.543,1.865-10.688c1.244-3.144,3.133-5.904,5.667-8.279
		c2.533-2.375,5.948-4.411,10.246-6.107c4.298-1.697,12.034-3.313,23.208-4.852c12.44-1.719,21.24-3.551,26.397-5.497
		c0-5.383-0.147-9.522-0.441-12.418c-0.294-2.895-1.301-5.609-3.02-8.143c-1.72-2.533-4.366-4.479-7.939-5.836
		c-3.574-1.357-7.985-2.036-13.232-2.036c-16.332,0-26.149,6.99-29.451,20.969l-11.265-1.697
		c3.483-18.593,17.033-27.89,40.647-27.89c7.419,0,13.65,0.848,18.695,2.545c5.044,1.696,8.799,4.095,11.265,7.193
		c2.466,3.1,4.072,6.934,4.818,11.502c0.746,4.57,1.12,10.857,1.12,18.865l-0.34,26.601c-0.091,7.103,0.237,12.554,0.984,16.354
		C1118.801,166.99,1120.396,171.492,1122.839,176.694z M1106.213,132.042v-6.107c-6.288,2.398-16.241,4.773-29.858,7.125
		c-7.192,1.267-12.452,2.568-15.777,3.902c-3.324,1.334-5.836,3.269-7.532,5.802c-1.696,2.534-2.545,5.52-2.545,8.957
		c0,5.158,1.911,9.309,5.734,12.452c3.822,3.146,8.742,4.717,14.76,4.717c3.528,0,7.012-0.464,10.45-1.392
		c3.438-0.927,6.809-2.307,10.111-4.139c3.302-1.833,6.062-4.049,8.278-6.65c2.216-2.602,3.834-5.938,4.853-10.009
		C1105.705,142.628,1106.213,137.743,1106.213,132.042z"/>
	<path fill="#FFF" d="M1157.379,176.694h-11.129V46.336h11.129V176.694z"/>
	<path fill="#FFF" d="M1179.095,151.111l11.265-1.832c1.673,7.193,4.931,12.418,9.771,15.676
		c4.841,3.257,10.812,4.886,17.915,4.886c4.886,0,9.239-0.814,13.063-2.443c3.822-1.629,6.729-3.766,8.721-6.412
		c1.99-2.647,2.985-5.803,2.985-9.467c0-3.348-1.131-6.22-3.393-8.618c-2.263-2.397-5.283-4.275-9.06-5.632
		c-3.778-1.357-9.127-2.759-16.049-4.208c-21.535-4.523-32.301-13.345-32.301-26.465c0-8.188,3.178-14.646,9.534-19.374
		c6.355-4.727,14.329-7.091,23.92-7.091c19.091,0,30.763,8.325,35.016,24.972l-10.857,1.629c-2.036-6.65-4.784-11.231-8.245-13.742
		s-8.697-3.766-15.709-3.766c-4.435,0-8.415,0.668-11.943,2.002c-3.528,1.335-6.165,3.111-7.905,5.327
		c-1.742,2.217-2.613,4.864-2.613,7.94c0,3.077,0.791,5.689,2.375,7.837c1.583,2.149,4.648,4.083,9.195,5.802
		c4.547,1.72,10.349,3.393,17.406,5.021c13.391,3.077,22.122,6.82,26.193,11.23c4.071,4.411,6.107,9.603,6.107,15.574
		c0,6.017-1.459,11.141-4.377,15.371c-2.918,4.23-7.171,7.556-12.758,9.975c-5.588,2.42-12.158,3.631-19.713,3.631
		c-4.842,0-9.252-0.464-13.232-1.391c-3.981-0.927-7.601-2.364-10.857-4.31c-3.258-1.944-6.107-4.568-8.551-7.871
		C1182.556,162.059,1180.588,157.309,1179.095,151.111z"/>
	<path fill="#CCC" d="M1275.047,176.694V46.336h16.015v130.358H1275.047z"/>
	<path fill="#CCC" d="M1377.718,176.694V162.85c-7.374,10.632-17.371,15.947-29.993,15.947c-8.415,0-15.055-1.686-19.917-5.056
		c-4.863-3.369-8.133-7.532-9.806-12.486c-1.674-4.953-2.511-11.773-2.511-20.459V82.233h16.015v52.388
		c0,7.556,0.316,13.232,0.95,17.033c0.633,3.8,2.499,6.979,5.599,9.534c3.098,2.557,7.385,3.834,12.859,3.834
		c7.826,0,13.967-2.329,18.424-6.989c4.455-4.659,6.684-13.051,6.684-25.176V82.233h16.015v94.46H1377.718z"/>
	<path fill="#CCC" d="M1420.946,176.694V94.72h-14.115V82.233h14.115V72.19c0-5.564,0.564-10.314,1.696-14.25
		c1.13-3.936,3.755-7.227,7.872-9.874c4.115-2.646,9.636-3.97,16.558-3.97c4.522,0,9.522,0.543,14.996,1.628l-2.442,13.979
		c-3.303-0.633-6.446-0.95-9.433-0.95c-4.932,0-8.381,1.052-10.349,3.155s-2.952,5.983-2.952,11.638v8.686h18.391V94.72h-18.391
		v81.974H1420.946z"/>
	<path fill="#CCC" d="M1502.716,162.375l2.307,14.115c-4.524,0.949-8.55,1.425-12.079,1.425c-5.021,0-9.184-0.747-12.485-2.239
		c-3.303-1.493-5.758-3.767-7.363-6.82c-1.606-3.054-2.409-9.67-2.409-19.849V94.72h-11.739V82.233h11.739V58.89l15.947-9.636
		v32.979h16.083V94.72h-16.083v55.237c0,4.841,0.52,8.223,1.561,10.145c1.04,1.924,3.529,2.884,7.465,2.884
		C1497.467,162.986,1499.821,162.783,1502.716,162.375z"/>
</g>
<g>
	<path fill="#FFF" d="M446.552,325.099v-91.563h34.509c5.72,0,10.701,0.898,14.943,2.693s7.53,4.44,9.866,7.936
		c2.336,3.496,3.503,7.674,3.503,12.536c0,3.973-0.977,7.658-2.931,11.058c-1.955,3.401-5.347,6.467-10.177,9.199
		c6.26,2.034,10.74,4.966,13.441,8.795c2.7,3.829,4.052,8.381,4.052,13.655c0,5.148-1.049,9.581-3.146,13.299
		c-2.097,3.718-5.362,6.713-9.795,8.984c-4.433,2.272-9.747,3.408-15.943,3.408H446.552z M455.417,241.257v32.555h26.787
		c3.845,0,7.142-0.683,9.891-2.05c2.748-1.365,4.878-3.272,6.388-5.72c1.509-2.446,2.264-5.386,2.264-8.817
		c0-2.732-0.469-5.124-1.406-7.174s-2.304-3.733-4.099-5.053c-1.796-1.317-4.116-2.271-6.959-2.859
		c-2.845-0.588-6.38-0.882-10.605-0.882H455.417z M455.417,281.581v36.13h28.551c4.067,0,7.643-0.668,10.725-2.002
		c3.082-1.335,5.537-3.368,7.364-6.102c1.827-2.732,2.741-6.132,2.741-10.2c0-5.465-1.867-9.803-5.601-13.012
		c-3.734-3.21-8.699-4.814-14.896-4.814H455.417z"/>
	<path fill="#FFF" d="M606.132,325.099h-9.771l-11.917-29.171h-42.707l-11.487,29.171h-9.39l37.226-91.563h9.057L606.132,325.099
		z M581.49,288.73l-18.97-46.092l-18.113,46.092H581.49z"/>
	<path fill="#FFF" d="M672.052,325.099h-54.767v-91.563h8.628v84.08h46.139V325.099z"/>
	<path fill="#FFF" d="M743.215,325.099h-54.767v-91.563h8.628v84.08h46.139V325.099z"/>
	<path fill="#FFF" d="M841.119,279.341c0,14.299-3.782,25.763-11.345,34.39c-7.563,8.628-18.001,12.941-31.315,12.941
		c-8.77,0-16.277-1.907-22.521-5.72c-6.244-3.813-11.146-9.263-14.704-16.35c-3.56-7.085-5.339-15.506-5.339-25.262
		c0-14.268,3.797-25.73,11.393-34.39c7.594-8.659,17.984-12.989,31.172-12.989c8.897,0,16.492,1.938,22.784,5.815
		c6.291,3.877,11.177,9.351,14.656,16.42C839.378,261.269,841.119,269.649,841.119,279.341z M832.062,279.341
		c0-12.012-2.987-21.719-8.961-29.123c-5.975-7.403-14.188-11.105-24.643-11.105c-10.518,0-18.731,3.718-24.643,11.153
		c-5.91,7.436-8.865,17.128-8.865,29.075c0,11.853,3.003,21.513,9.009,28.979c6.006,7.468,14.172,11.201,24.499,11.201
		c6.832,0,12.694-1.628,17.589-4.885c4.893-3.257,8.785-7.929,11.678-14.014C830.616,294.538,832.062,287.443,832.062,279.341z"/>
	<path fill="#FFF" d="M928.917,325.099h-9.151l-52.813-78.026l0.715,78.026h-8.675v-91.563h8.675l53.384,78.933l-0.667-78.933
		h8.532V325.099z"/>
	<path fill="#FFF" d="M1005.61,241.161h-45.472v33.223h38.751v7.483h-38.751v43.231h-8.676v-91.563h54.147V241.161z"/>
	<path fill="#FFF" d="M1096.792,325.099h-9.771l-11.917-29.171h-42.707l-11.487,29.171h-9.39l37.226-91.563h9.057
		L1096.792,325.099z M1072.149,288.73l-18.97-46.092l-18.113,46.092H1072.149z"/>
	<path fill="#FFF" d="M1177.869,325.099h-8.437v-44.471h-53.098v44.471h-8.58v-91.563h8.58v39.514h53.098v-39.514h8.437V325.099z
		"/>
	<path fill="#FFF" d="M1274.342,325.099h-11.059l-12.345-19.352c-5.116-8.008-8.771-13.171-10.963-15.491
		c-2.192-2.319-4.774-4.106-7.745-5.362c-2.972-1.255-6.253-1.883-9.843-1.883h-13.203v42.088h-8.723v-91.563h38.513
		c5.847,0,10.827,0.978,14.943,2.932c4.114,1.954,7.269,4.734,9.461,8.341c2.192,3.607,3.289,7.984,3.289,13.132
		c0,14.585-8.851,22.736-26.55,24.452c6.514,3.336,12.107,8.596,16.778,15.776L1274.342,325.099z M1209.185,241.209v34.318h24.118
		c16.174,0,24.261-5.83,24.261-17.493c0-2.51-0.421-4.781-1.263-6.815c-0.843-2.033-2.209-3.877-4.1-5.529
		c-1.891-1.651-4.337-2.813-7.34-3.479s-6.713-1.001-11.13-1.001H1209.185z"/>
	<path fill="#FFF" d="M1342.216,241.543h-28.074v83.556h-8.771v-83.556h-27.979v-8.008h64.823V241.543z"/>
	<path fill="#FFF" d="M1417.669,325.099h-60.438v-91.563h58.531v7.722h-49.809v32.889h46.091v7.53h-46.091v35.844h51.716V325.099
		z"/>
	<path fill="#FFF" d="M1504.752,325.099h-9.151l-52.813-78.026l0.715,78.026h-8.675v-91.563h8.675l53.384,78.933l-0.667-78.933
		h8.532V325.099z"/>
</g>
</svg>
