<?xml version="1.0" encoding="utf-8"?>
<!-- Generator: Adobe Illustrator 19.2.0, SVG Export Plug-In . SVG Version: 6.00 Build 0)  -->
<svg version="1.1" id="Layer_1" xmlns="http://www.w3.org/2000/svg" xmlns:xlink="http://www.w3.org/1999/xlink" x="0px" y="0px"
	 viewBox="0 0 1533.2 342" style="enable-background:new 0 0 1533.2 342;" xml:space="preserve">
<style type="text/css">
	.st0{fill:#2E3192;}
	.st1{fill:#00ADEF;}
</style>
<path class="st0" d="M364.3,217.3c0-9.7-7.2-17.7-16.5-19.1c0.2-1.3,0.3-2.6,0.3-4c0-14.4-11.7-26.1-26.1-26.1
	c-11.5,0-21.3,7.5-24.7,17.9c-2.3-0.9-4.9-1.4-7.5-1.4c-11.5,0-20.8,9.3-20.8,20.8c0,0.4,0,0.7,0,1.1c-0.1,0-0.1,0-0.2,0
	c-8.3,0-15,6.7-15,15c0,8.3,6.7,15,15,15c0.5,0,77.7-0.1,77.7-0.1C356.5,235.8,364.3,227.5,364.3,217.3z"/>
<path class="st0" d="M189.3,289.4c0-14.6-10.8-26.7-24.8-28.7c0.3-1.9,0.5-3.9,0.5-6c0-21.6-17.5-39.2-39.2-39.2
	c-17.3,0-32,11.3-37.2,26.9c-3.5-1.4-7.3-2.1-11.3-2.1c-17.3,0-31.3,14-31.3,31.3c0,0.5,0,1.1,0,1.6c-0.1,0-0.2,0-0.3,0
	c-12.5,0-22.6,10.1-22.6,22.6c0,12.5,10.1,22.6,22.6,22.6c0.8,0,116.9-0.1,116.9-0.1C177.6,317.1,189.3,304.6,189.3,289.4z"/>
<path class="st1" d="M192.3,222.8c0,0-32.8-36.5-48.9-55.1c-11.6-13.5-22.8-27.9-29.8-44.4c-6.8-16.1-9.3-34.1-5.2-51.3
	c3.9-16.7,13.9-31.6,28.4-40.9c19.6-12.5,45.2-15,67.9-14.2c6.7,0.2,13.4,0.9,20.1,1.9c8.9,1.3,17.9,3.1,26.2,6.6
	c3.9,1.6,7.7,3.5,11.2,5.8c14.5,9.3,24.5,24.2,28.4,40.9c4,17.2,1.6,35.2-5.2,51.3c-7,16.5-18.2,30.9-29.8,44.4
	c-16,18.6-33.2,36.1-48.9,55.1H192.3z"/>
<rect x="191.9" y="233.6" class="st1" width="15.2" height="11.5"/>
<path class="st0" d="M455,176.7V46.3h16v130.4H455z"/>
<path class="st0" d="M560.5,146.3l16.5,2c-5.5,20.3-19.3,30.5-41.5,30.5c-8.5,0-16-1.6-22.5-4.9s-11.9-8.6-16.1-15.8
	s-6.3-16.5-6.3-27.8c0-9.6,1.6-18.2,4.9-25.7c3.3-7.5,8.2-13.4,14.8-17.8c6.6-4.4,14.8-6.7,24.4-6.7c10.1,0,18.5,2.5,25,7.4
	s11.2,11,13.8,18.2c2.7,7.2,4,16.4,4,27.8H507c0.6,10,3.4,17.8,8.5,23.5c5.1,5.7,11.8,8.6,20.1,8.6
	C547.5,165.7,555.8,159.2,560.5,146.3z M507.9,120.4h52.7c-0.7-9-3.5-15.8-8.3-20.4c-4.8-4.5-10.7-6.8-17.6-6.8
	c-7.6,0-13.8,2.5-18.7,7.5C511.1,105.8,508.4,112.3,507.9,120.4z"/>
<path class="st0" d="M597.2,64.7V46.3h16v18.4H597.2z M597.2,176.7V82.2h16v94.5H597.2z"/>
<path class="st0" d="M699.2,142.1l15.7,2c-1.7,10.8-6,19.2-13.1,25.4c-7,6.2-15.8,9.3-26.2,9.3c-13.5,0-24.1-4.3-31.6-13
	c-7.6-8.7-11.3-20.7-11.3-36c0-17.2,4.1-29.8,12.3-37.7c8.2-8,18.4-11.9,30.7-11.9c21.3,0,33.9,10,37.7,29.9l-15.6,2.4
	c-3-12.8-10.2-19.1-21.5-19.1c-18.1,0-27.2,12-27.2,36.1c0,24.2,8.8,36.3,26.3,36.3C689.1,165.7,697,157.8,699.2,142.1z"/>
<path class="st0" d="M728.6,176.7V46.3h16v46.8c7.5-8.6,16.9-13,28.2-13c10.1,0,18,2.5,23.9,7.6c5.8,5.1,8.8,14.8,8.8,29.1v59.9h-16
	v-59.9c0-15.3-6.6-22.9-19.9-22.9c-16.6,0-25,10.4-25,31.1v51.6L728.6,176.7L728.6,176.7z"/>
<path class="st0" d="M864.9,162.4l2.3,14.1c-4.5,0.9-8.5,1.4-12.1,1.4c-5,0-9.2-0.7-12.5-2.2c-3.3-1.5-5.8-3.8-7.4-6.8
	c-1.6-3.1-2.4-9.7-2.4-19.8V94.7h-11.7V82.2h11.7V58.9l15.9-9.6v33h16.1v12.5h-16.1V150c0,4.8,0.5,8.2,1.6,10.1
	c1,1.9,3.5,2.9,7.5,2.9C859.7,163,862,162.8,864.9,162.4z"/>
<path class="st0" d="M945.3,146.3l16.5,2c-5.5,20.3-19.3,30.5-41.5,30.5c-8.5,0-16-1.6-22.5-4.9s-11.9-8.6-16.2-15.8
	c-4.2-7.3-6.3-16.5-6.3-27.8c0-9.6,1.6-18.2,4.9-25.7c3.3-7.5,8.2-13.4,14.8-17.8c6.6-4.4,14.8-6.7,24.4-6.7c10.1,0,18.5,2.5,25,7.4
	s11.2,11,13.8,18.2c2.7,7.2,4,16.4,4,27.8h-70.4c0.6,10,3.4,17.8,8.5,23.5c5.1,5.7,11.8,8.6,20.1,8.6
	C932.3,165.7,940.6,159.2,945.3,146.3z M892.7,120.4h52.7c-0.7-9-3.5-15.8-8.3-20.4c-4.8-4.5-10.7-6.8-17.6-6.8
	c-7.6,0-13.8,2.5-18.7,7.5C895.9,105.8,893.2,112.3,892.7,120.4z"/>
<path class="st0" d="M981.7,176.7V82.2h14.5v14.3c6-10.9,12.8-16.4,20.4-16.4c5.4,0,10.9,1.7,16.4,5.2l-5.5,14.9
	c-3.9-2.3-7.8-3.5-11.7-3.5c-12,0-18.1,10.2-18.1,30.5v49.5H981.7z"/>
<path class="st1" d="M1122.8,176.7h-12.1c-1.8-4.4-2.9-9.2-3.5-14.4c-10.2,11-23.1,16.5-38.6,16.5c-5.7,0-10.7-1-15.2-3
	c-4.5-2-8-4.9-10.7-8.9c-2.7-3.9-4-8.7-4-14.4c0-4,0.6-7.5,1.9-10.7c1.2-3.1,3.1-5.9,5.7-8.3c2.5-2.4,5.9-4.4,10.2-6.1
	c4.3-1.7,12-3.3,23.2-4.9c12.4-1.7,21.2-3.6,26.4-5.5c0-5.4-0.1-9.5-0.4-12.4c-0.3-2.9-1.3-5.6-3-8.1c-1.7-2.5-4.4-4.5-7.9-5.8
	c-3.6-1.4-8-2-13.2-2c-16.3,0-26.1,7-29.5,21l-11.3-1.7c3.5-18.6,17-27.9,40.6-27.9c7.4,0,13.7,0.8,18.7,2.5c5,1.7,8.8,4.1,11.3,7.2
	c2.5,3.1,4.1,6.9,4.8,11.5c0.7,4.6,1.1,10.9,1.1,18.9l-0.3,26.6c-0.1,7.1,0.2,12.6,1,16.4C1118.8,167,1120.4,171.5,1122.8,176.7z
	 M1106.2,132v-6.1c-6.3,2.4-16.2,4.8-29.9,7.1c-7.2,1.3-12.5,2.6-15.8,3.9c-3.3,1.3-5.8,3.3-7.5,5.8c-1.7,2.5-2.5,5.5-2.5,9
	c0,5.2,1.9,9.3,5.7,12.5c3.8,3.1,8.7,4.7,14.8,4.7c3.5,0,7-0.5,10.4-1.4c3.4-0.9,6.8-2.3,10.1-4.1c3.3-1.8,6.1-4,8.3-6.6
	c2.2-2.6,3.8-5.9,4.9-10C1105.7,142.6,1106.2,137.7,1106.2,132z"/>
<path class="st1" d="M1157.4,176.7h-11.1V46.3h11.1V176.7z"/>
<path class="st1" d="M1179.1,151.1l11.3-1.8c1.7,7.2,4.9,12.4,9.8,15.7c4.8,3.3,10.8,4.9,17.9,4.9c4.9,0,9.2-0.8,13.1-2.4
	c3.8-1.6,6.7-3.8,8.7-6.4c2-2.6,3-5.8,3-9.5c0-3.3-1.1-6.2-3.4-8.6c-2.3-2.4-5.3-4.3-9.1-5.6c-3.8-1.4-9.1-2.8-16-4.2
	c-21.5-4.5-32.3-13.3-32.3-26.5c0-8.2,3.2-14.6,9.5-19.4c6.4-4.7,14.3-7.1,23.9-7.1c19.1,0,30.8,8.3,35,25l-10.9,1.6
	c-2-6.7-4.8-11.2-8.2-13.7s-8.7-3.8-15.7-3.8c-4.4,0-8.4,0.7-11.9,2c-3.5,1.3-6.2,3.1-7.9,5.3c-1.7,2.2-2.6,4.9-2.6,7.9
	c0,3.1,0.8,5.7,2.4,7.8c1.6,2.1,4.6,4.1,9.2,5.8c4.5,1.7,10.3,3.4,17.4,5c13.4,3.1,22.1,6.8,26.2,11.2c4.1,4.4,6.1,9.6,6.1,15.6
	c0,6-1.5,11.1-4.4,15.4s-7.2,7.6-12.8,10c-5.6,2.4-12.2,3.6-19.7,3.6c-4.8,0-9.3-0.5-13.2-1.4c-4-0.9-7.6-2.4-10.9-4.3
	c-3.3-1.9-6.1-4.6-8.6-7.9C1182.6,162.1,1180.6,157.3,1179.1,151.1z"/>
<path class="st0" d="M1275,176.7V46.3h16v130.4H1275z"/>
<path class="st0" d="M1377.7,176.7v-13.8c-7.4,10.6-17.4,15.9-30,15.9c-8.4,0-15.1-1.7-19.9-5.1c-4.9-3.4-8.1-7.5-9.8-12.5
	c-1.7-5-2.5-11.8-2.5-20.5V82.2h16v52.4c0,7.6,0.3,13.2,0.9,17c0.6,3.8,2.5,7,5.6,9.5c3.1,2.6,7.4,3.8,12.9,3.8c7.8,0,14-2.3,18.4-7
	c4.5-4.7,6.7-13.1,6.7-25.2V82.2h16v94.5L1377.7,176.7L1377.7,176.7z"/>
<path class="st0" d="M1420.9,176.7v-82h-14.1V82.2h14.1v-10c0-5.6,0.6-10.3,1.7-14.3c1.1-3.9,3.8-7.2,7.9-9.9c4.1-2.6,9.6-4,16.6-4
	c4.5,0,9.5,0.5,15,1.6l-2.4,14c-3.3-0.6-6.4-1-9.4-1c-4.9,0-8.4,1.1-10.3,3.2s-3,6-3,11.6v8.7h18.4v12.5h-18.4v82H1420.9z"/>
<path class="st0" d="M1502.7,162.4l2.3,14.1c-4.5,0.9-8.6,1.4-12.1,1.4c-5,0-9.2-0.7-12.5-2.2c-3.3-1.5-5.8-3.8-7.4-6.8
	c-1.6-3.1-2.4-9.7-2.4-19.8V94.7h-11.7V82.2h11.7V58.9l15.9-9.6v33h16.1v12.5h-16.1V150c0,4.8,0.5,8.2,1.6,10.1
	c1,1.9,3.5,2.9,7.5,2.9C1497.5,163,1499.8,162.8,1502.7,162.4z"/>
<g>
	<path class="st1" d="M446.6,325.1v-91.6h34.5c5.7,0,10.7,0.9,14.9,2.7s7.5,4.4,9.9,7.9s3.5,7.7,3.5,12.5c0,4-1,7.7-2.9,11.1
		c-2,3.4-5.3,6.5-10.2,9.2c6.3,2,10.7,5,13.4,8.8c2.7,3.8,4.1,8.4,4.1,13.7c0,5.1-1,9.6-3.1,13.3c-2.1,3.7-5.4,6.7-9.8,9
		c-4.4,2.3-9.7,3.4-15.9,3.4L446.6,325.1L446.6,325.1z M455.4,241.3v32.6h26.8c3.8,0,7.1-0.7,9.9-2c2.7-1.4,4.9-3.3,6.4-5.7
		c1.5-2.4,2.3-5.4,2.3-8.8c0-2.7-0.5-5.1-1.4-7.2s-2.3-3.7-4.1-5.1c-1.8-1.3-4.1-2.3-7-2.9c-2.8-0.6-6.4-0.9-10.6-0.9L455.4,241.3
		L455.4,241.3z M455.4,281.6v36.1H484c4.1,0,7.6-0.7,10.7-2c3.1-1.3,5.5-3.4,7.4-6.1c1.8-2.7,2.7-6.1,2.7-10.2c0-5.5-1.9-9.8-5.6-13
		c-3.7-3.2-8.7-4.8-14.9-4.8H455.4z"/>
	<path class="st1" d="M606.1,325.1h-9.8l-11.9-29.2h-42.7l-11.5,29.2h-9.4l37.2-91.6h9.1L606.1,325.1z M581.5,288.7l-19-46.1
		l-18.1,46.1H581.5z"/>
	<path class="st1" d="M672.1,325.1h-54.8v-91.6h8.6v84.1h46.1V325.1z"/>
	<path class="st1" d="M743.2,325.1h-54.8v-91.6h8.6v84.1h46.1L743.2,325.1L743.2,325.1z"/>
	<path class="st1" d="M841.1,279.3c0,14.3-3.8,25.8-11.3,34.4c-7.6,8.6-18,12.9-31.3,12.9c-8.8,0-16.3-1.9-22.5-5.7
		s-11.1-9.3-14.7-16.4c-3.6-7.1-5.3-15.5-5.3-25.3c0-14.3,3.8-25.7,11.4-34.4c7.6-8.7,18-13,31.2-13c8.9,0,16.5,1.9,22.8,5.8
		c6.3,3.9,11.2,9.4,14.7,16.4C839.4,261.3,841.1,269.6,841.1,279.3z M832.1,279.3c0-12-3-21.7-9-29.1c-6-7.4-14.2-11.1-24.6-11.1
		c-10.5,0-18.7,3.7-24.6,11.2c-5.9,7.4-8.9,17.1-8.9,29.1c0,11.9,3,21.5,9,29c6,7.5,14.2,11.2,24.5,11.2c6.8,0,12.7-1.6,17.6-4.9
		c4.9-3.3,8.8-7.9,11.7-14C830.6,294.5,832.1,287.4,832.1,279.3z"/>
	<path class="st1" d="M928.9,325.1h-9.2l-52.8-78l0.7,78H859v-91.6h8.7l53.4,78.9l-0.7-78.9h8.5V325.1z"/>
	<path class="st1" d="M1005.6,241.2h-45.5v33.2h38.8v7.5h-38.8v43.2h-8.7v-91.6h54.1L1005.6,241.2L1005.6,241.2z"/>
	<path class="st1" d="M1096.8,325.1h-9.8l-11.9-29.2h-42.7l-11.5,29.2h-9.4l37.2-91.6h9.1L1096.8,325.1z M1072.1,288.7l-19-46.1
		l-18.1,46.1H1072.1z"/>
	<path class="st1" d="M1177.9,325.1h-8.4v-44.5h-53.1v44.5h-8.6v-91.6h8.6V273h53.1v-39.5h8.4V325.1z"/>
	<path class="st1" d="M1274.3,325.1h-11.1l-12.3-19.4c-5.1-8-8.8-13.2-11-15.5c-2.2-2.3-4.8-4.1-7.7-5.4c-3-1.3-6.3-1.9-9.8-1.9
		h-13.2v42.1h-8.7v-91.6h38.5c5.8,0,10.8,1,14.9,2.9c4.1,2,7.3,4.7,9.5,8.3c2.2,3.6,3.3,8,3.3,13.1c0,14.6-8.9,22.7-26.6,24.5
		c6.5,3.3,12.1,8.6,16.8,15.8L1274.3,325.1z M1209.2,241.2v34.3h24.1c16.2,0,24.3-5.8,24.3-17.5c0-2.5-0.4-4.8-1.3-6.8
		c-0.8-2-2.2-3.9-4.1-5.5c-1.9-1.7-4.3-2.8-7.3-3.5s-6.7-1-11.1-1L1209.2,241.2L1209.2,241.2z"/>
	<path class="st1" d="M1342.2,241.5h-28.1v83.6h-8.8v-83.6h-28v-8h64.8L1342.2,241.5L1342.2,241.5z"/>
	<path class="st1" d="M1417.7,325.1h-60.4v-91.6h58.5v7.7H1366v32.9h46.1v7.5H1366v35.8h51.7V325.1z"/>
	<path class="st1" d="M1504.8,325.1h-9.2l-52.8-78l0.7,78h-8.7v-91.6h8.7l53.4,78.9l-0.7-78.9h8.5V325.1z"/>
</g>
</svg>
