<?xml version="1.0" encoding="UTF-8" standalone="no"?>
<svg
   xmlns:dc="http://purl.org/dc/elements/1.1/"
   xmlns:cc="http://creativecommons.org/ns#"
   xmlns:rdf="http://www.w3.org/1999/02/22-rdf-syntax-ns#"
   xmlns:svg="http://www.w3.org/2000/svg"
   xmlns="http://www.w3.org/2000/svg"
   xmlns:sodipodi="http://sodipodi.sourceforge.net/DTD/sodipodi-0.dtd"
   xmlns:inkscape="http://www.inkscape.org/namespaces/inkscape"
   height="317.06128"
   width="1393.2501"
   xml:space="preserve"
   viewBox="0 0 1393.2502 317.06128"
   y="0px"
   x="0px"
   id="Layer_1"
   version="1.1"
   sodipodi:docname="leichter-als-luft-logo-color.svg"
   inkscape:version="0.92.5 (2060ec1f9f, 2020-04-08)"><sodipodi:namedview
   pagecolor="#ffffff"
   bordercolor="#666666"
   borderopacity="1"
   objecttolerance="10"
   gridtolerance="10"
   guidetolerance="10"
   inkscape:pageopacity="0"
   inkscape:pageshadow="2"
   inkscape:window-width="730"
   inkscape:window-height="480"
   id="namedview26"
   showgrid="false"
   inkscape:zoom="0.24062438"
   inkscape:cx="696.62506"
   inkscape:cy="158.53063"
   inkscape:window-x="0"
   inkscape:window-y="0"
   inkscape:window-maximized="0"
   inkscape:current-layer="Layer_1"
   fit-margin-top="50"
   fit-margin-left="50"
   fit-margin-right="50"
   fit-margin-bottom="50" /><metadata
   id="metadata75"><rdf:RDF><cc:Work
       rdf:about=""><dc:format>image/svg+xml</dc:format><dc:type
         rdf:resource="http://purl.org/dc/dcmitype/StillImage" /><dc:title></dc:title></cc:Work></rdf:RDF></metadata><defs
   id="defs73" />
<style
   id="style2"
   type="text/css">
	.st0{fill:#2E3192;}
	.st1{fill:#00ADEF;}
</style>



<path
   id="path4"
   d="m 295.53262,194.3082 c 0,-6.98027 -5.18123,-12.73719 -11.87365,-13.74465 0.14392,-0.9355 0.21588,-1.871 0.21588,-2.87846 0,-10.36245 -8.41949,-18.78195 -18.78195,-18.78195 -8.27557,0 -15.32779,5.39711 -17.77449,12.88111 -1.65511,-0.64765 -3.52611,-1.00746 -5.39711,-1.00746 -8.27557,0 -14.96799,6.69242 -14.96799,14.96799 0,0.28784 0,0.50373 0,0.79158 -0.072,0 -0.072,0 -0.14392,0 -5.97281,0 -10.79423,4.82142 -10.79423,10.79422 0,5.9728 4.82142,10.79422 10.79423,10.79422 0.35981,0 55.91408,-0.072 55.91408,-0.072 7.19615,-0.43177 12.80915,-6.40457 12.80915,-13.74464 z"
   class="st0"
   style="fill:#2e3192;stroke-width:1.22678506"
   inkscape:connector-curvature="0" /><path
   id="path6"
   d="m 169.6,246.19243 c 0,-10.50637 -7.77184,-19.21372 -17.84645,-20.65295 0.21589,-1.36726 0.35981,-2.80649 0.35981,-4.31768 0,-15.54369 -12.59326,-28.20891 -28.20891,-28.20891 -12.44934,0 -23.02768,8.13165 -26.76967,19.35764 -2.51866,-1.00746 -5.25319,-1.51119 -8.13165,-1.51119 -12.44934,0 -22.52395,10.07461 -22.52395,22.52395 0,0.35981 0,0.79157 0,1.15138 -0.072,0 -0.14392,0 -0.21588,0 -8.99519,0 -16.2633,7.26811 -16.2633,16.2633 0,8.99519 7.26811,16.2633 16.2633,16.2633 0.57569,0 84.12298,-0.072 84.12298,-0.072 C 161.18051,266.12573 169.6,257.13054 169.6,246.19239 Z"
   class="st0"
   style="fill:#2e3192;stroke-width:1.22678506"
   inkscape:connector-curvature="0" /><path
   id="path8"
   d="m 171.75885,198.26608 c 0,0 -23.60337,-26.26595 -35.18917,-39.65078 -8.34754,-9.71481 -16.40723,-20.07726 -21.44453,-31.95091 -4.89338,-11.5858 -6.69242,-24.53887 -3.742,-36.916237 2.8065,-12.017574 10.00265,-22.739836 20.43707,-29.432255 14.10445,-8.995187 32.52659,-10.794224 48.86185,-10.218533 4.82142,0.143923 9.64284,0.647654 14.46426,1.367269 6.40457,0.935499 12.88111,2.230806 18.85391,4.749458 2.8065,1.151384 5.54104,2.518653 8.05969,4.173767 10.43442,6.692419 17.63057,17.414682 20.43706,29.432254 2.87846,12.377367 1.15139,25.330437 -3.74199,36.916237 -5.03731,11.87365 -13.097,22.23611 -21.44453,31.95091 -11.51384,13.38483 -23.89121,25.9781 -35.18917,39.65078 h -10.36245 z"
   class="st1"
   style="fill:#00adef;stroke-width:1.22678506"
   inkscape:connector-curvature="0" /><rect
   id="rect10"
   height="8.2755718"
   width="10.938147"
   class="st1"
   y="206.03793"
   x="171.47099"
   style="fill:#00adef;stroke-width:1.22678506" />














<g
   style="stroke-width:1.0767839"
   transform="matrix(0.92869136,0,0,0.92869136,-54.430354,73.027983)"
   id="g897"><path
     style="fill:#2e3192;stroke-width:1.0767839"
     class="st0"
     d="M 455,176.7 V 46.3 h 16 v 130.4 z"
     id="path12"
     inkscape:connector-curvature="0" /><path
     style="fill:#2e3192;stroke-width:1.0767839"
     class="st0"
     d="m 560.5,146.3 16.5,2 c -5.5,20.3 -19.3,30.5 -41.5,30.5 -8.5,0 -16,-1.6 -22.5,-4.9 -6.5,-3.3 -11.9,-8.6 -16.1,-15.8 -4.2,-7.2 -6.3,-16.5 -6.3,-27.8 0,-9.6 1.6,-18.2 4.9,-25.7 3.3,-7.5 8.2,-13.4 14.8,-17.8 6.6,-4.4 14.8,-6.7 24.4,-6.7 10.1,0 18.5,2.5 25,7.4 6.5,4.9 11.2,11 13.8,18.2 2.7,7.2 4,16.4 4,27.8 H 507 c 0.6,10 3.4,17.8 8.5,23.5 5.1,5.7 11.8,8.6 20.1,8.6 11.9,0.1 20.2,-6.4 24.9,-19.3 z m -52.6,-25.9 h 52.7 c -0.7,-9 -3.5,-15.8 -8.3,-20.4 -4.8,-4.5 -10.7,-6.8 -17.6,-6.8 -7.6,0 -13.8,2.5 -18.7,7.5 -4.9,5.1 -7.6,11.6 -8.1,19.7 z"
     id="path14"
     inkscape:connector-curvature="0" /><path
     style="fill:#2e3192;stroke-width:1.0767839"
     class="st0"
     d="M 597.2,64.7 V 46.3 h 16 v 18.4 z m 0,112 V 82.2 h 16 v 94.5 z"
     id="path16"
     inkscape:connector-curvature="0" /><path
     style="fill:#2e3192;stroke-width:1.0767839"
     class="st0"
     d="m 699.2,142.1 15.7,2 c -1.7,10.8 -6,19.2 -13.1,25.4 -7,6.2 -15.8,9.3 -26.2,9.3 -13.5,0 -24.1,-4.3 -31.6,-13 -7.6,-8.7 -11.3,-20.7 -11.3,-36 0,-17.2 4.1,-29.8 12.3,-37.7 8.2,-8 18.4,-11.9 30.7,-11.9 21.3,0 33.9,10 37.7,29.9 l -15.6,2.4 c -3,-12.8 -10.2,-19.1 -21.5,-19.1 -18.1,0 -27.2,12 -27.2,36.1 0,24.2 8.8,36.3 26.3,36.3 13.7,-0.1 21.6,-8 23.8,-23.7 z"
     id="path18"
     inkscape:connector-curvature="0" /><path
     style="fill:#2e3192;stroke-width:1.0767839"
     class="st0"
     d="M 728.6,176.7 V 46.3 h 16 v 46.8 c 7.5,-8.6 16.9,-13 28.2,-13 10.1,0 18,2.5 23.9,7.6 5.8,5.1 8.8,14.8 8.8,29.1 v 59.9 h -16 v -59.9 c 0,-15.3 -6.6,-22.9 -19.9,-22.9 -16.6,0 -25,10.4 -25,31.1 v 51.6 z"
     id="path20"
     inkscape:connector-curvature="0" /><path
     style="fill:#2e3192;stroke-width:1.0767839"
     class="st0"
     d="m 864.9,162.4 2.3,14.1 c -4.5,0.9 -8.5,1.4 -12.1,1.4 -5,0 -9.2,-0.7 -12.5,-2.2 -3.3,-1.5 -5.8,-3.8 -7.4,-6.8 -1.6,-3.1 -2.4,-9.7 -2.4,-19.8 V 94.7 H 821.1 V 82.2 h 11.7 V 58.9 l 15.9,-9.6 v 33 h 16.1 V 94.8 H 848.7 V 150 c 0,4.8 0.5,8.2 1.6,10.1 1,1.9 3.5,2.9 7.5,2.9 1.9,0 4.2,-0.2 7.1,-0.6 z"
     id="path22"
     inkscape:connector-curvature="0" /><path
     style="fill:#2e3192;stroke-width:1.0767839"
     class="st0"
     d="m 945.3,146.3 16.5,2 c -5.5,20.3 -19.3,30.5 -41.5,30.5 -8.5,0 -16,-1.6 -22.5,-4.9 -6.5,-3.3 -11.9,-8.6 -16.2,-15.8 -4.2,-7.3 -6.3,-16.5 -6.3,-27.8 0,-9.6 1.6,-18.2 4.9,-25.7 3.3,-7.5 8.2,-13.4 14.8,-17.8 6.6,-4.4 14.8,-6.7 24.4,-6.7 10.1,0 18.5,2.5 25,7.4 6.5,4.9 11.2,11 13.8,18.2 2.7,7.2 4,16.4 4,27.8 h -70.4 c 0.6,10 3.4,17.8 8.5,23.5 5.1,5.7 11.8,8.6 20.1,8.6 11.9,0.1 20.2,-6.4 24.9,-19.3 z m -52.6,-25.9 h 52.7 c -0.7,-9 -3.5,-15.8 -8.3,-20.4 -4.8,-4.5 -10.7,-6.8 -17.6,-6.8 -7.6,0 -13.8,2.5 -18.7,7.5 -4.9,5.1 -7.6,11.6 -8.1,19.7 z"
     id="path24"
     inkscape:connector-curvature="0" /><path
     style="fill:#2e3192;stroke-width:1.0767839"
     class="st0"
     d="M 981.7,176.7 V 82.2 h 14.5 v 14.3 c 6,-10.9 12.8,-16.4 20.4,-16.4 5.4,0 10.9,1.7 16.4,5.2 l -5.5,14.9 c -3.9,-2.3 -7.8,-3.5 -11.7,-3.5 -12,0 -18.1,10.2 -18.1,30.5 v 49.5 z"
     id="path26"
     inkscape:connector-curvature="0" /><path
     style="fill:#00adef;stroke-width:1.0767839"
     class="st1"
     d="m 1122.8,176.7 h -12.1 c -1.8,-4.4 -2.9,-9.2 -3.5,-14.4 -10.2,11 -23.1,16.5 -38.6,16.5 -5.7,0 -10.7,-1 -15.2,-3 -4.5,-2 -8,-4.9 -10.7,-8.9 -2.7,-3.9 -4,-8.7 -4,-14.4 0,-4 0.6,-7.5 1.9,-10.7 1.2,-3.1 3.1,-5.9 5.7,-8.3 2.5,-2.4 5.9,-4.4 10.2,-6.1 4.3,-1.7 12,-3.3 23.2,-4.9 12.4,-1.7 21.2,-3.6 26.4,-5.5 0,-5.4 -0.1,-9.5 -0.4,-12.4 -0.3,-2.9 -1.3,-5.6 -3,-8.1 -1.7,-2.5 -4.4,-4.5 -7.9,-5.8 -3.6,-1.4 -8,-2 -13.2,-2 -16.3,0 -26.1,7 -29.5,21 l -11.3,-1.7 c 3.5,-18.6 17,-27.9 40.6,-27.9 7.4,0 13.7,0.8 18.7,2.5 5,1.7 8.8,4.1 11.3,7.2 2.5,3.1 4.1,6.9 4.8,11.5 0.7,4.6 1.1,10.9 1.1,18.9 l -0.3,26.6 c -0.1,7.1 0.2,12.6 1,16.4 0.8,3.8 2.4,8.3 4.8,13.5 z M 1106.2,132 v -6.1 c -6.3,2.4 -16.2,4.8 -29.9,7.1 -7.2,1.3 -12.5,2.6 -15.8,3.9 -3.3,1.3 -5.8,3.3 -7.5,5.8 -1.7,2.5 -2.5,5.5 -2.5,9 0,5.2 1.9,9.3 5.7,12.5 3.8,3.1 8.7,4.7 14.8,4.7 3.5,0 7,-0.5 10.4,-1.4 3.4,-0.9 6.8,-2.3 10.1,-4.1 3.3,-1.8 6.1,-4 8.3,-6.6 2.2,-2.6 3.8,-5.9 4.9,-10 1,-4.2 1.5,-9.1 1.5,-14.8 z"
     id="path28"
     inkscape:connector-curvature="0" /><path
     style="fill:#00adef;stroke-width:1.0767839"
     class="st1"
     d="m 1157.4,176.7 h -11.1 V 46.3 h 11.1 z"
     id="path30"
     inkscape:connector-curvature="0" /><path
     style="fill:#00adef;stroke-width:1.0767839"
     class="st1"
     d="m 1179.1,151.1 11.3,-1.8 c 1.7,7.2 4.9,12.4 9.8,15.7 4.8,3.3 10.8,4.9 17.9,4.9 4.9,0 9.2,-0.8 13.1,-2.4 3.8,-1.6 6.7,-3.8 8.7,-6.4 2,-2.6 3,-5.8 3,-9.5 0,-3.3 -1.1,-6.2 -3.4,-8.6 -2.3,-2.4 -5.3,-4.3 -9.1,-5.6 -3.8,-1.4 -9.1,-2.8 -16,-4.2 -21.5,-4.5 -32.3,-13.3 -32.3,-26.5 0,-8.2 3.2,-14.6 9.5,-19.4 6.4,-4.7 14.3,-7.1 23.9,-7.1 19.1,0 30.8,8.3 35,25 l -10.9,1.6 c -2,-6.7 -4.8,-11.2 -8.2,-13.7 -3.4,-2.5 -8.7,-3.8 -15.7,-3.8 -4.4,0 -8.4,0.7 -11.9,2 -3.5,1.3 -6.2,3.1 -7.9,5.3 -1.7,2.2 -2.6,4.9 -2.6,7.9 0,3.1 0.8,5.7 2.4,7.8 1.6,2.1 4.6,4.1 9.2,5.8 4.5,1.7 10.3,3.4 17.4,5 13.4,3.1 22.1,6.8 26.2,11.2 4.1,4.4 6.1,9.6 6.1,15.6 0,6 -1.5,11.1 -4.4,15.4 -2.9,4.3 -7.2,7.6 -12.8,10 -5.6,2.4 -12.2,3.6 -19.7,3.6 -4.8,0 -9.3,-0.5 -13.2,-1.4 -4,-0.9 -7.6,-2.4 -10.9,-4.3 -3.3,-1.9 -6.1,-4.6 -8.6,-7.9 -2.4,-3.2 -4.4,-8 -5.9,-14.2 z"
     id="path32"
     inkscape:connector-curvature="0" /><path
     style="fill:#2e3192;stroke-width:1.0767839"
     class="st0"
     d="M 1275,176.7 V 46.3 h 16 v 130.4 z"
     id="path34"
     inkscape:connector-curvature="0" /><path
     style="fill:#2e3192;stroke-width:1.0767839"
     class="st0"
     d="m 1377.7,176.7 v -13.8 c -7.4,10.6 -17.4,15.9 -30,15.9 -8.4,0 -15.1,-1.7 -19.9,-5.1 -4.9,-3.4 -8.1,-7.5 -9.8,-12.5 -1.7,-5 -2.5,-11.8 -2.5,-20.5 V 82.2 h 16 v 52.4 c 0,7.6 0.3,13.2 0.9,17 0.6,3.8 2.5,7 5.6,9.5 3.1,2.6 7.4,3.8 12.9,3.8 7.8,0 14,-2.3 18.4,-7 4.5,-4.7 6.7,-13.1 6.7,-25.2 V 82.2 h 16 v 94.5 z"
     id="path36"
     inkscape:connector-curvature="0" /><path
     style="fill:#2e3192;stroke-width:1.0767839"
     class="st0"
     d="m 1420.9,176.7 v -82 h -14.1 V 82.2 h 14.1 v -10 c 0,-5.6 0.6,-10.3 1.7,-14.3 1.1,-3.9 3.8,-7.2 7.9,-9.9 4.1,-2.6 9.6,-4 16.6,-4 4.5,0 9.5,0.5 15,1.6 l -2.4,14 c -3.3,-0.6 -6.4,-1 -9.4,-1 -4.9,0 -8.4,1.1 -10.3,3.2 -1.9,2.1 -3,6 -3,11.6 v 8.7 h 18.4 V 94.6 H 1437 v 82 h -16.1 z"
     id="path38"
     inkscape:connector-curvature="0" /><path
     style="fill:#2e3192;stroke-width:1.0767839"
     class="st0"
     d="m 1502.7,162.4 2.3,14.1 c -4.5,0.9 -8.6,1.4 -12.1,1.4 -5,0 -9.2,-0.7 -12.5,-2.2 -3.3,-1.5 -5.8,-3.8 -7.4,-6.8 -1.6,-3.1 -2.4,-9.7 -2.4,-19.8 V 94.7 h -11.7 V 82.2 h 11.7 V 58.9 l 15.9,-9.6 v 33 h 16.1 v 12.5 h -16.1 V 150 c 0,4.8 0.5,8.2 1.6,10.1 1,1.9 3.5,2.9 7.5,2.9 1.9,0 4.2,-0.2 7.1,-0.6 z"
     id="path40"
     inkscape:connector-curvature="0" /></g>

</svg>