<?xml version="1.0" encoding="UTF-8" standalone="no"?>
<!-- Generator: Adobe Illustrator 19.2.0, SVG Export Plug-In . SVG Version: 6.00 Build 0)  -->

<svg
   xmlns:dc="http://purl.org/dc/elements/1.1/"
   xmlns:cc="http://creativecommons.org/ns#"
   xmlns:rdf="http://www.w3.org/1999/02/22-rdf-syntax-ns#"
   xmlns:svg="http://www.w3.org/2000/svg"
   xmlns="http://www.w3.org/2000/svg"
   xmlns:sodipodi="http://sodipodi.sourceforge.net/DTD/sodipodi-0.dtd"
   xmlns:inkscape="http://www.inkscape.org/namespaces/inkscape"
   version="1.1"
   id="Layer_1"
   x="0px"
   y="0px"
   viewBox="0 0 1393.2502 317.06128"
   xml:space="preserve"
   sodipodi:docname="leichter-als-luft-logo.svg"
   inkscape:version="0.92.5 (2060ec1f9f, 2020-04-08)"
   width="1393.2501"
   height="317.06128"><metadata
   id="metadata75"><rdf:RDF><cc:Work
       rdf:about=""><dc:format>image/svg+xml</dc:format><dc:type
         rdf:resource="http://purl.org/dc/dcmitype/StillImage" /><dc:title></dc:title></cc:Work></rdf:RDF></metadata><defs
   id="defs73" /><sodipodi:namedview
   pagecolor="#ffffff"
   bordercolor="#666666"
   borderopacity="1"
   objecttolerance="10"
   gridtolerance="10"
   guidetolerance="10"
   inkscape:pageopacity="0"
   inkscape:pageshadow="2"
   inkscape:window-width="1920"
   inkscape:window-height="1135"
   id="namedview71"
   showgrid="false"
   inkscape:zoom="0.82441954"
   inkscape:cx="382.82139"
   inkscape:cy="-132.40244"
   inkscape:window-x="0"
   inkscape:window-y="0"
   inkscape:window-maximized="1"
   inkscape:current-layer="Layer_1"
   fit-margin-top="50"
   fit-margin-left="50"
   fit-margin-right="50"
   fit-margin-bottom="50" />
<style
   type="text/css"
   id="style2">
	.st0{fill:#2E3192;}
	.st1{fill:#00ADEF;}
</style>



<path
   style="fill:#cccccc;fill-opacity:1;stroke-width:1.22678506"
   inkscape:connector-curvature="0"
   class="st0"
   d="m 295.53262,194.3082 c 0,-6.98027 -5.18123,-12.73719 -11.87365,-13.74465 0.14392,-0.9355 0.21588,-1.871 0.21588,-2.87846 0,-10.36245 -8.41949,-18.78195 -18.78195,-18.78195 -8.27557,0 -15.32779,5.39711 -17.77449,12.88111 -1.65511,-0.64765 -3.52611,-1.00746 -5.39711,-1.00746 -8.27557,0 -14.96799,6.69242 -14.96799,14.96799 0,0.28784 0,0.50373 0,0.79158 -0.072,0 -0.072,0 -0.14392,0 -5.97281,0 -10.79423,4.82142 -10.79423,10.79422 0,5.9728 4.82142,10.79422 10.79423,10.79422 0.35981,0 55.91408,-0.072 55.91408,-0.072 7.19615,-0.43177 12.80915,-6.40457 12.80915,-13.74464 z"
   id="path4" /><path
   style="fill:#cccccc;fill-opacity:1;stroke-width:1.22678506"
   inkscape:connector-curvature="0"
   class="st0"
   d="m 169.6,246.19243 c 0,-10.50637 -7.77184,-19.21372 -17.84645,-20.65295 0.21589,-1.36726 0.35981,-2.80649 0.35981,-4.31768 0,-15.54369 -12.59326,-28.20891 -28.20891,-28.20891 -12.44934,0 -23.02768,8.13165 -26.76967,19.35764 -2.51866,-1.00746 -5.25319,-1.51119 -8.13165,-1.51119 -12.44934,0 -22.52395,10.07461 -22.52395,22.52395 0,0.35981 0,0.79157 0,1.15138 -0.072,0 -0.14392,0 -0.21588,0 -8.99519,0 -16.2633,7.26811 -16.2633,16.2633 0,8.99519 7.26811,16.2633 16.2633,16.2633 0.57569,0 84.12298,-0.072 84.12298,-0.072 C 161.18051,266.12573 169.6,257.13054 169.6,246.19239 Z"
   id="path6" /><path
   style="fill:#ffffff;fill-opacity:1;stroke-width:1.22678506"
   inkscape:connector-curvature="0"
   class="st1"
   d="m 171.75885,198.26608 c 0,0 -23.60337,-26.26595 -35.18917,-39.65078 -8.34754,-9.71481 -16.40723,-20.07726 -21.44453,-31.95091 -4.89338,-11.5858 -6.69242,-24.53887 -3.742,-36.916237 2.8065,-12.017574 10.00265,-22.739836 20.43707,-29.432255 14.10445,-8.995187 32.52659,-10.794224 48.86185,-10.218533 4.82142,0.143923 9.64284,0.647654 14.46426,1.367269 6.40457,0.935499 12.88111,2.230806 18.85391,4.749458 2.8065,1.151384 5.54104,2.518653 8.05969,4.173767 10.43442,6.692419 17.63057,17.414682 20.43706,29.432254 2.87846,12.377367 1.15139,25.330437 -3.74199,36.916237 -5.03731,11.87365 -13.097,22.23611 -21.44453,31.95091 -11.51384,13.38483 -23.89121,25.9781 -35.18917,39.65078 h -10.36245 z"
   id="path8" /><rect
   style="fill:#ffffff;fill-opacity:1;stroke-width:1.22678506"
   x="171.47099"
   y="206.03793"
   class="st1"
   width="10.938147"
   height="8.2755718"
   id="rect10" />














<path
   style="fill:#cccccc;fill-opacity:1;stroke-width:0.99999988"
   inkscape:connector-curvature="0"
   class="st0"
   d="M 368.12421,237.12775 V 116.02639 h 14.85907 v 121.10136 z"
   id="path12" /><path
   style="fill:#cccccc;fill-opacity:1;stroke-width:0.99999988"
   inkscape:connector-curvature="0"
   class="st0"
   d="m 466.10115,208.89553 15.32341,1.85738 c -5.1078,18.85244 -17.92374,28.32509 -38.54069,28.32509 -7.89388,0 -14.85906,-1.48591 -20.89556,-4.55059 -6.03649,-3.06468 -11.05142,-7.98675 -14.95193,-14.67332 -3.9005,-6.68658 -5.85075,-15.32341 -5.85075,-25.81762 0,-8.91544 1.4859,-16.90219 4.55058,-23.86737 3.06469,-6.96519 7.61527,-12.44446 13.74464,-16.53071 6.12936,-4.08624 13.74463,-6.22223 22.66007,-6.22223 9.37978,0 17.18079,2.32173 23.21728,6.87232 6.03649,4.55058 10.40134,10.2156 12.81594,16.90218 2.50747,6.68658 3.71477,15.23054 3.71477,25.81762 h -65.47274 c 0.55721,9.28691 3.15755,16.53071 7.89387,21.82425 4.73633,5.29354 10.95856,7.98674 18.6667,7.98674 11.05143,0.0929 18.75956,-5.94362 23.12441,-17.92374 z m -48.84916,-24.05311 h 48.94203 c -0.65008,-8.35822 -3.25042,-14.67332 -7.70814,-18.9453 -4.45771,-4.17911 -9.93699,-6.3151 -16.34496,-6.3151 -7.05806,0 -12.81594,2.32173 -17.36653,6.96518 -4.55059,4.73633 -7.05806,10.77282 -7.5224,18.29522 z"
   id="path14" /><path
   style="fill:#cccccc;fill-opacity:1;stroke-width:0.99999988"
   inkscape:connector-curvature="0"
   class="st0"
   d="m 500.18413,133.11431 v -17.08792 h 14.85906 v 17.08792 z m 0,104.01344 v -87.76134 h 14.85906 v 87.76134 z"
   id="path16" /><path
   style="fill:#cccccc;fill-opacity:1;stroke-width:0.99999988"
   inkscape:connector-curvature="0"
   class="st0"
   d="m 594.91064,204.99503 14.58046,1.85738 c -1.57878,10.02986 -5.57215,17.83087 -12.16586,23.58876 -6.50084,5.75788 -14.67332,8.63683 -24.33171,8.63683 -12.53733,0 -22.38146,-3.99337 -29.34665,-12.07299 -7.05805,-8.07961 -10.49421,-19.22391 -10.49421,-33.43289 0,-15.97349 3.80763,-27.675 11.4229,-35.01166 7.61527,-7.42953 17.08792,-11.05143 28.51083,-11.05143 19.78112,0 31.48264,9.28691 35.01166,27.76787 l -14.48758,2.22886 c -2.78608,-11.88725 -9.47265,-17.738 -19.96687,-17.738 -16.80931,0 -25.2604,11.14429 -25.2604,33.52575 0,22.47434 8.17248,33.7115 24.42458,33.7115 12.72307,-0.0929 20.05973,-7.42953 22.10285,-22.00998 z"
   id="path18" /><path
   style="fill:#cccccc;fill-opacity:1;stroke-width:0.99999988"
   inkscape:connector-curvature="0"
   class="st0"
   d="M 622.21417,237.12775 V 116.02639 h 14.85906 v 43.46276 c 6.96519,-7.98675 15.69489,-12.07299 26.1891,-12.07299 9.37978,0 16.71644,2.32173 22.19572,7.05806 5.38641,4.73632 8.17249,13.74463 8.17249,27.02491 v 55.62862 h -14.85907 v -55.62862 c 0,-14.20897 -6.12936,-21.26703 -18.48095,-21.26703 -15.41628,0 -23.21729,9.65839 -23.21729,28.8823 v 47.92048 z"
   id="path20" /><path
   style="fill:#cccccc;fill-opacity:1;stroke-width:0.99999988"
   inkscape:connector-curvature="0"
   class="st0"
   d="m 748.7948,223.84746 2.13599,13.09455 c -4.17911,0.83582 -7.89387,1.30017 -11.23716,1.30017 -4.64346,0 -8.54396,-0.65009 -11.60864,-2.04313 -3.06469,-1.39303 -5.38641,-3.52902 -6.87232,-6.3151 -1.48591,-2.87894 -2.22886,-9.0083 -2.22886,-18.38809 v -50.52081 h -10.86569 v -11.60864 h 10.86569 V 127.7279 L 733.75,118.81247 v 30.64681 h 14.95193 v 11.60864 H 733.75 v 51.26377 c 0,4.45772 0.46435,7.61527 1.48591,9.37978 0.92869,1.76451 3.25042,2.6932 6.96518,2.6932 1.76452,0 3.90051,-0.18573 6.59371,-0.55721 z"
   id="path22" /><path
   style="fill:#cccccc;fill-opacity:1;stroke-width:0.99999988"
   inkscape:connector-curvature="0"
   class="st0"
   d="m 823.46159,208.89553 15.32341,1.85738 c -5.10781,18.85244 -17.92375,28.32509 -38.5407,28.32509 -7.89387,0 -14.85906,-1.48591 -20.89555,-4.55059 -6.03649,-3.06468 -11.05143,-7.98675 -15.0448,-14.67332 -3.9005,-6.77945 -5.85076,-15.32341 -5.85076,-25.81762 0,-8.91544 1.48591,-16.90219 4.55059,-23.86737 3.06468,-6.96519 7.61527,-12.44446 13.74463,-16.53071 6.12937,-4.08624 13.74464,-6.22223 22.66007,-6.22223 9.37979,0 17.18079,2.32173 23.21729,6.87232 6.03649,4.55058 10.40134,10.2156 12.81594,16.90218 2.50746,6.68658 3.71476,15.23054 3.71476,25.81762 H 773.7766 c 0.55722,9.28691 3.15755,16.53071 7.89388,21.82425 4.73632,5.29354 10.95856,7.98674 18.66669,7.98674 11.05143,0.0929 18.75957,-5.94362 23.12442,-17.92374 z m -48.84917,-24.05311 h 48.94204 c -0.65009,-8.35822 -3.25042,-14.67332 -7.70814,-18.9453 -4.45772,-4.17911 -9.937,-6.3151 -16.34497,-6.3151 -7.05805,0 -12.81594,2.32173 -17.36653,6.96518 -4.55058,4.73633 -7.05805,10.77282 -7.5224,18.29522 z"
   id="path24" /><path
   style="fill:#cccccc;fill-opacity:1;stroke-width:0.99999988"
   inkscape:connector-curvature="0"
   class="st0"
   d="m 857.26595,237.12775 v -87.76134 h 13.46603 v 13.28029 c 5.57215,-10.12274 11.88725,-15.23054 18.9453,-15.23054 5.01494,0 10.12274,1.57878 15.23054,4.8292 l -5.1078,13.8375 c -3.6219,-2.13599 -7.24379,-3.25042 -10.86569,-3.25042 -11.1443,0 -16.80931,9.47265 -16.80931,28.32508 v 45.97023 z"
   id="path26" /><path
   style="fill:#ffffff;fill-opacity:1;stroke-width:0.99999988"
   inkscape:connector-curvature="0"
   class="st1"
   d="m 988.30431,237.12775 h -11.23717 c -1.67164,-4.08625 -2.69321,-8.54396 -3.25042,-13.37316 -9.47265,10.21561 -21.45277,15.32341 -35.84749,15.32341 -5.29354,0 -9.93699,-0.92869 -14.11611,-2.78608 -4.17911,-1.85738 -7.42953,-4.55058 -9.93699,-8.26535 -2.50747,-3.6219 -3.71477,-8.07961 -3.71477,-13.37315 0,-3.71477 0.55722,-6.96519 1.76452,-9.937 1.11442,-2.87895 2.87894,-5.47928 5.29354,-7.70814 2.32172,-2.22886 5.47927,-4.08624 9.47265,-5.66502 3.99337,-1.57877 11.14429,-3.06468 21.54564,-4.55059 11.51577,-1.57877 19.68825,-3.34328 24.51745,-5.1078 0,-5.01493 -0.0929,-8.82257 -0.37148,-11.51577 -0.2786,-2.69321 -1.2073,-5.20067 -2.78607,-7.5224 -1.57878,-2.32173 -4.08624,-4.17911 -7.33666,-5.38641 -3.34329,-1.30017 -7.42953,-1.85738 -12.25873,-1.85738 -15.13767,0 -24.23884,6.50084 -27.39639,19.50252 l -10.49422,-1.57878 c 3.25042,-17.27366 15.78776,-25.91049 37.70487,-25.91049 6.87232,0 12.72307,0.74295 17.36653,2.32173 4.64346,1.57877 8.17249,3.80763 10.49421,6.68658 2.32173,2.87894 3.80764,6.40797 4.45772,10.67995 0.65009,4.27198 1.02156,10.12273 1.02156,17.55226 l -0.2786,24.70319 c -0.0929,6.59371 0.18573,11.70152 0.92869,15.23054 0.74295,3.52903 2.22886,7.70814 4.45772,12.53734 z m -15.41628,-41.51251 v -5.66501 c -5.85076,2.22885 -15.0448,4.45771 -27.76787,6.5937 -6.68658,1.2073 -11.60865,2.4146 -14.67333,3.6219 -3.06468,1.2073 -5.38641,3.06468 -6.96518,5.38641 -1.57878,2.32173 -2.32173,5.1078 -2.32173,8.35822 0,4.8292 1.76451,8.63683 5.29354,11.60864 3.52903,2.87895 8.07962,4.36485 13.74463,4.36485 3.25042,0 6.50084,-0.46434 9.65839,-1.30016 3.15755,-0.83583 6.3151,-2.13599 9.37979,-3.80764 3.06468,-1.67164 5.66501,-3.71476 7.70813,-6.12936 2.04312,-2.4146 3.52903,-5.47928 4.55059,-9.28692 0.92869,-3.9005 1.39304,-8.45109 1.39304,-13.74463 z"
   id="path28" /><path
   style="fill:#ffffff;fill-opacity:1;stroke-width:0.99999988"
   inkscape:connector-curvature="0"
   class="st1"
   d="m 1020.437,237.12775 h -10.3084 V 116.02639 h 10.3084 z"
   id="path30" /><path
   style="fill:#ffffff;fill-opacity:1;stroke-width:0.99999988"
   inkscape:connector-curvature="0"
   class="st1"
   d="m 1040.5896,213.35325 10.4942,-1.67165 c 1.5788,6.68658 4.5506,11.51578 9.1012,14.58046 4.4577,3.06468 10.0299,4.55059 16.6236,4.55059 4.5506,0 8.544,-0.74296 12.1658,-2.22886 3.5291,-1.48591 6.2223,-3.52903 8.0797,-5.94363 1.8573,-2.4146 2.786,-5.38641 2.786,-8.82257 0,-3.06468 -1.0215,-5.75788 -3.1575,-7.98674 -2.136,-2.22886 -4.9221,-3.99338 -8.4511,-5.20067 -3.529,-1.30017 -8.4511,-2.60034 -14.8591,-3.90051 -19.9668,-4.17911 -29.9967,-12.35159 -29.9967,-24.61032 0,-7.61527 2.9718,-13.55889 8.8226,-18.01661 5.9436,-4.36485 13.2803,-6.59371 22.1957,-6.59371 17.738,0 28.6037,7.70814 32.5042,23.21728 l -10.1227,1.48591 c -1.8574,-6.22223 -4.4578,-10.40134 -7.6153,-12.72307 -3.1576,-2.32173 -8.0796,-3.52903 -14.5805,-3.52903 -4.0862,0 -7.801,0.65009 -11.0514,1.85738 -3.2504,1.2073 -5.7579,2.87895 -7.3367,4.92207 -1.5787,2.04312 -2.4146,4.55059 -2.4146,7.33666 0,2.87894 0.743,5.29354 2.2289,7.24379 1.4859,1.95025 4.272,3.80764 8.544,5.38641 4.1791,1.57878 9.5655,3.15755 16.1592,4.64346 12.4445,2.87894 20.5241,6.3151 24.3317,10.40134 3.8076,4.08624 5.665,8.91544 5.665,14.48759 0,5.57215 -1.393,10.30847 -4.0862,14.30184 -2.6932,3.99338 -6.6866,7.05806 -11.8873,9.28692 -5.2006,2.22886 -11.33,3.34329 -18.2952,3.34329 -4.4577,0 -8.6368,-0.46435 -12.2587,-1.30017 -3.7148,-0.83582 -7.0581,-2.22886 -10.1227,-3.99337 -3.0647,-1.76452 -5.6651,-4.27198 -7.9868,-7.33667 -2.2289,-2.97181 -4.0862,-7.42953 -5.4793,-13.18741 z"
   id="path32" /><path
   style="fill:#cccccc;fill-opacity:1;stroke-width:0.99999988"
   inkscape:connector-curvature="0"
   class="st0"
   d="M 1129.6511,237.12775 V 116.02639 h 14.8591 v 121.10136 z"
   id="path34" /><path
   style="fill:#cccccc;fill-opacity:1;stroke-width:0.99999988"
   inkscape:connector-curvature="0"
   class="st0"
   d="m 1225.0277,237.12775 v -12.81594 c -6.8723,9.84412 -16.1592,14.76619 -27.8607,14.76619 -7.801,0 -14.0232,-1.57878 -18.481,-4.73633 -4.5506,-3.15755 -7.5224,-6.96518 -9.1011,-11.60864 -1.5788,-4.64346 -2.3218,-10.95856 -2.3218,-19.03817 v -54.32845 h 14.8591 v 48.66343 c 0,7.05805 0.2786,12.25873 0.8358,15.78775 0.5572,3.52903 2.3217,6.50084 5.2007,8.82257 2.8789,2.4146 6.8723,3.52903 11.9801,3.52903 7.2438,0 13.0017,-2.13599 17.0879,-6.50084 4.1791,-4.36485 6.2223,-12.16586 6.2223,-23.40302 v -46.89892 h 14.859 v 87.76134 z"
   id="path36" /><path
   style="fill:#cccccc;fill-opacity:1;stroke-width:0.99999988"
   inkscape:connector-curvature="0"
   class="st0"
   d="m 1265.1472,237.12775 v -76.1527 h -13.0945 v -11.60864 h 13.0945 v -9.28691 c 0,-5.20067 0.5572,-9.56552 1.5788,-13.28029 1.0215,-3.62189 3.529,-6.68658 7.3366,-9.19404 3.8077,-2.4146 8.9155,-3.71477 15.4163,-3.71477 4.1791,0 8.8226,0.46435 13.9304,1.48591 l -2.2289,13.00168 c -3.0647,-0.55722 -5.9436,-0.92869 -8.7297,-0.92869 -4.5506,0 -7.801,1.02156 -9.5655,2.97181 -1.7645,1.95025 -2.7861,5.57215 -2.7861,10.77282 v 8.07961 h 17.088 v 11.60865 h -17.088 v 76.15269 h -14.9519 z"
   id="path38" /><path
   style="fill:#cccccc;fill-opacity:1;stroke-width:0.99999988"
   inkscape:connector-curvature="0"
   class="st0"
   d="m 1341.1142,223.84746 2.1359,13.09455 c -4.1791,0.83582 -7.9867,1.30017 -11.2371,1.30017 -4.6435,0 -8.544,-0.65009 -11.6087,-2.04313 -3.0646,-1.39303 -5.3864,-3.52902 -6.8723,-6.3151 -1.4859,-2.87894 -2.2288,-9.0083 -2.2288,-18.38809 v -50.52081 h -10.8657 v -11.60864 h 10.8657 V 127.7279 l 14.7662,-8.91543 v 30.64681 h 14.9519 v 11.60864 h -14.9519 v 51.26377 c 0,4.45772 0.4643,7.61527 1.4859,9.37978 0.9287,1.76451 3.2504,2.6932 6.9651,2.6932 1.7646,0 3.9005,-0.18573 6.5938,-0.55721 z"
   id="path40" />

</svg>